<svg width="164" height="39" viewBox="0 0 164 39" fill="none" xmlns="http://www.w3.org/2000/svg">
<path fill-rule="evenodd" clip-rule="evenodd" d="M161.68 16.2329H141.15C140.686 16.2329 140.338 16.3566 140.105 16.604C140.047 16.7889 140.047 16.8513 140.105 16.8513L154.374 20.0627C159.128 21.1748 155.997 25.6832 148.225 25.6832H125.026L127.231 22.9041H146.486C147.877 22.9041 147.529 22.2857 147.297 22.2244L133.319 19.1367C129.724 18.3333 132.508 14.5659 136.22 13.7637C138.424 13.2076 141.904 13.3313 143.47 13.3313H164L161.68 16.2329ZM114.471 25.6832L124.273 13.3313H131.58L121.779 25.6832H114.471ZM108.324 16.1716L100.726 25.6832H93.4191L101.016 16.1716V16.1092H90.9821L93.1864 13.3313H121.026L118.821 16.1716H108.324ZM72.829 25.6832L82.6315 13.3313H89.9381L80.1379 25.6832H72.829ZM56.5323 16.2329C56.0679 16.2329 55.721 16.3566 55.4883 16.604C55.4307 16.7889 55.4307 16.8513 55.4883 16.8513L69.7559 20.0627C74.5113 21.1748 71.3794 25.6832 63.6084 25.6832H40.4095L42.6138 22.9041H61.8685C63.2017 22.9041 62.9124 22.2857 62.6797 22.2244L48.7036 19.1367C45.0497 18.3333 47.8325 14.5659 51.5452 13.7013C53.8071 13.2076 57.287 13.3313 58.8518 13.3313H79.3832L77.0636 16.2329H56.5323ZM23.6573 28.4967C21.392 31.1655 19.1589 33.8698 16.9258 36.5385L14.8633 39L8.63831 33.4876L4.61316 29.952C2.78566 28.3575 1.46685 26.3462 0.723217 24.024C-0.0215243 21.7018 -0.191086 19.344 0.214532 16.9516C0.654506 14.5247 1.70291 12.3764 3.25999 10.5044C5.52635 7.83454 7.75836 5.13129 9.99148 2.46146L12.0207 0L22.6765 9.39454L22.7097 9.42909C24.402 11.0582 25.62 13.0349 26.3303 15.288C27.0064 17.5422 27.1416 19.8644 26.6684 22.1865C26.194 24.5433 25.18 26.6938 23.6573 28.4967ZM23.3192 16.2585C22.8117 14.5247 21.8641 13.0349 20.5786 11.7869L18.6513 10.1222L8.09749 22.7069C7.62316 21.8745 7.35274 20.9731 7.28514 20.0025C7.18318 18.1651 7.69076 16.6396 8.74027 15.3571L15.505 7.34983L12.3587 4.57637C10.1267 7.24509 7.86032 9.9138 5.62721 12.6182C4.41035 14.0745 3.63125 15.7382 3.29324 17.5422C2.95522 19.3785 3.09043 21.216 3.66561 22.9844C4.24079 24.7862 5.22159 26.2771 6.64236 27.5262L8.30029 28.9815L18.8541 16.3978C19.3273 17.16 19.5989 18.0615 19.6665 19.032C19.733 19.8989 19.6321 20.6967 19.3617 21.4935C19.0569 22.2902 18.6846 23.0189 18.1437 23.6429C15.8774 26.3462 13.7119 29.016 11.4455 31.7204L14.5575 34.4582C16.7906 31.7895 19.0226 29.1196 21.29 26.4164C22.4737 25.0291 23.2173 23.4 23.5897 21.5971C23.962 19.7596 23.8601 17.9924 23.3192 16.2585Z" fill="#E8431D"/>
</svg>
