<svg width="26" height="24" viewBox="0 0 26 24" fill="none" xmlns="http://www.w3.org/2000/svg">
<path fill-rule="evenodd" clip-rule="evenodd" d="M13.5909 6.09073C13.4136 6.09073 13.2955 6.03164 13.1773 5.91346L10.8136 3.54982C10.6955 3.43164 10.6364 3.31346 10.6364 3.13619C10.6364 2.95891 10.6955 2.84073 10.8136 2.72255L13.1773 0.358913C13.2955 0.240732 13.4136 0.181641 13.5909 0.181641C13.9455 0.181641 14.1818 0.418004 14.1818 0.77255C14.1818 0.949822 14.1227 1.068 14.0045 1.18619L12.6455 2.54528H19.5C19.8545 2.54528 20.0909 2.78164 20.0909 3.13619C20.0909 3.49073 19.8545 3.7271 19.5 3.7271H12.6455L14.0045 5.08619C14.1227 5.20437 14.1818 5.32255 14.1818 5.49982C14.1818 5.85437 13.9455 6.09073 13.5909 6.09073ZM26 9.16346L23.6364 19.7998C23.5773 19.9771 23.4591 20.1544 23.2227 20.2135C23.4591 20.568 23.5773 20.9816 23.5773 21.4544C23.5773 22.7544 22.5136 23.818 21.2136 23.818C19.9136 23.818 18.85 22.7544 18.85 21.4544C18.85 21.0407 19.0273 20.6271 19.2045 20.2725H12.6455C12.8818 20.6271 13 21.0407 13 21.4544C13 22.7544 11.9364 23.818 10.6364 23.818C9.33636 23.818 8.27273 22.7544 8.27273 21.4544C8.27273 20.9816 8.39091 20.568 8.62727 20.2135C8.45 20.1544 8.33182 20.0362 8.27273 19.8589L4.60909 6.09073H0.590909C0.236364 6.09073 0 5.85437 0 5.49982C0 5.14528 0.236364 4.90891 0.590909 4.90891H5.08182C5.31818 4.90891 5.55455 5.08619 5.61364 5.32255L6.44091 8.45437H25.4091C25.7636 8.45437 26 8.69073 26 9.04528V9.16346ZM21.2136 9.63619H24.7L24.1682 11.9998H20.9773L21.2136 9.63619ZM10.6955 9.63619H6.79545L7.38636 11.9998H10.9318L10.6955 9.63619ZM8.39097 15.5453L7.74097 13.1816H11.1091L11.3455 15.5453H8.39097ZM11.4636 16.7271H8.68633L9.27724 19.0907H11.7L11.4636 16.7271ZM10.6364 22.6362C9.98636 22.6362 9.45455 22.1044 9.45455 21.4544C9.45455 20.8044 9.98636 20.2726 10.6364 20.2726C11.2864 20.2726 11.8182 20.8044 11.8182 21.4544C11.8182 22.1044 11.2864 22.6362 10.6364 22.6362ZM12.9409 19.0907H15.3636V16.7271H12.7045L12.9409 19.0907ZM15.3637 15.5453H12.5273L12.2909 13.1816H15.3637V15.5453ZM12.1727 11.9998H15.3636H15.4227V9.63619H11.9363L12.1727 11.9998ZM18.9682 19.0907H16.5455V16.7271H19.2045L18.9682 19.0907ZM16.5455 15.5453H19.3818L19.6182 13.1816H16.5455V15.5453ZM19.7364 11.9998H16.5455V9.63619H20.0318L19.7364 11.9998ZM20.0909 21.4544C20.0909 22.1044 20.6227 22.6362 21.2727 22.6362C21.9227 22.6362 22.4545 22.1044 22.4545 21.4544C22.4545 20.8044 21.9227 20.2726 21.2727 20.2726C20.6227 20.2726 20.0909 20.8044 20.0909 21.4544ZM22.5728 19.0907H20.1501L20.3864 16.7271H23.0455L22.5728 19.0907ZM20.8 13.1816L20.5637 15.5453H23.3409L23.8728 13.1816H20.8Z" fill="#212121"/>
</svg>
