<svg width="20" height="20" viewBox="0 0 20 20" fill="none" xmlns="http://www.w3.org/2000/svg">
<path d="M10 20C15.5228 20 20 15.5228 20 10C20 4.47715 15.5228 0 10 0C4.47715 0 0 4.47715 0 10C0 15.5228 4.47715 20 10 20Z" fill="#E8431D"/>
<path d="M10.3306 15.4496C10.1506 15.5096 9.84061 15.5096 9.66061 15.4496C8.10061 14.9196 4.60059 12.6896 4.60059 8.90964C4.60059 7.23964 5.94059 5.88965 7.60059 5.88965C8.58061 5.88965 9.45061 6.35965 10.0006 7.09965C10.5406 6.36965 11.4206 5.88965 12.4006 5.88965C14.0606 5.88965 15.4006 7.23964 15.4006 8.90964C15.4006 12.6896 11.9006 14.9196 10.3306 15.4496Z" fill="white"/>
</svg>
