<svg width="20" height="20" viewBox="0 0 20 20" fill="none" xmlns="http://www.w3.org/2000/svg">
<path fill-rule="evenodd" clip-rule="evenodd" d="M10 0C12.7156 0 13.0569 0.0110095 14.1229 0.0605508C14.9526 0.0764242 15.7735 0.233406 16.5505 0.524771C17.2145 0.782203 17.8176 1.17526 18.3211 1.67885C18.8247 2.18245 19.2178 2.78551 19.4752 3.44954C19.766 4.22478 19.923 5.04376 19.9395 5.87156C19.989 6.93761 20 7.2789 20 9.9945C20 12.7101 19.989 13.0514 19.9395 14.1174C19.9236 14.9471 19.7666 15.768 19.4752 16.545C19.2178 17.209 18.8247 17.812 18.3211 18.3156C17.8176 18.8192 17.2145 19.2123 16.5505 19.4697C15.7756 19.7624 14.9566 19.9212 14.1284 19.9394C13.0624 19.989 12.7211 20 10.0055 20C7.28991 20 6.94862 19.989 5.88257 19.9394C5.05291 19.9236 4.23201 19.7666 3.45504 19.4752C2.79101 19.2178 2.18795 18.8247 1.68436 18.3211C1.18077 17.8176 0.787711 17.2145 0.530278 16.5505C0.237646 15.7756 0.0788056 14.9566 0.060548 14.1284C0.0110067 13.0624 0 12.7211 0 10.0055C0 7.28991 0.0110067 6.94862 0.060548 5.88257C0.0764214 5.05291 0.233403 4.23202 0.524768 3.45505C0.781559 2.79 1.17433 2.18586 1.67796 1.68129C2.18158 1.17672 2.78497 0.782811 3.44954 0.524771C4.22477 0.234018 5.04376 0.0770465 5.87156 0.0605508C6.94312 0.0110095 7.2844 0 10 0ZM14.0367 1.86055C12.9835 1.81284 12.6661 1.80183 10 1.80183C7.33394 1.80183 7.01284 1.81284 5.9633 1.86055C5.32816 1.86705 4.69885 1.98249 4.10275 2.20183C3.67073 2.36839 3.27839 2.62359 2.95099 2.95099C2.62359 3.27839 2.36839 3.67073 2.20183 4.10275C1.98228 4.69758 1.86623 5.32562 1.85872 5.95963C1.81101 7.01284 1.8 7.33028 1.8 9.99633C1.8 12.6624 1.81101 12.9835 1.85872 14.033C1.86539 14.6695 1.98145 15.3001 2.20183 15.8972C2.36839 16.3293 2.62359 16.7216 2.95099 17.049C3.27839 17.3764 3.67073 17.6316 4.10275 17.7982C4.69758 18.0177 5.32562 18.1338 5.95964 18.1413C7.01285 18.189 7.33028 18.2 9.99633 18.2C12.6624 18.2 12.9835 18.189 14.033 18.1413C14.6695 18.1346 15.3001 18.0185 15.8973 17.7982C16.3293 17.6316 16.7216 17.3764 17.049 17.049C17.3764 16.7216 17.6316 16.3293 17.7982 15.8972C18.0177 15.3024 18.1338 14.6744 18.1413 14.0404C18.189 12.9872 18.2 12.6697 18.2 10.0037C18.2 7.33761 18.189 7.01651 18.1413 5.96697C18.1346 5.33049 18.0185 4.6999 17.7982 4.10275C17.6316 3.67073 17.3764 3.27839 17.049 2.95099C16.7216 2.62359 16.3293 2.36839 15.8973 2.20183C15.3023 1.9829 14.6743 1.86747 14.0404 1.86055H14.0367ZM10 13.3339C10.6594 13.3339 11.304 13.1384 11.8522 12.7721C12.4005 12.4057 12.8278 11.885 13.0802 11.2758C13.3325 10.6666 13.3985 9.9963 13.2699 9.34958C13.1412 8.70286 12.8237 8.10881 12.3575 7.64255C11.8912 7.17628 11.2971 6.85876 10.6504 6.73012C10.0037 6.60147 9.33335 6.6675 8.72415 6.91984C8.11495 7.17218 7.59427 7.59949 7.22793 8.14776C6.86159 8.69602 6.66605 9.34061 6.66605 10C6.66654 10.8841 7.01795 11.7318 7.64308 12.3569C8.26821 12.982 9.11593 13.3335 10 13.3339ZM10 4.86422C11.0161 4.86422 12.0094 5.16554 12.8543 5.73006C13.6992 6.29459 14.3577 7.09698 14.7465 8.03575C15.1354 8.97453 15.2371 10.0075 15.0389 11.0041C14.8407 12.0007 14.3513 12.9162 13.6328 13.6347C12.9143 14.3532 11.9989 14.8425 11.0023 15.0407C10.0057 15.239 8.97269 15.1372 8.03392 14.7484C7.09514 14.3595 6.29276 13.701 5.72823 12.8561C5.1637 12.0113 4.86239 11.018 4.86239 10.0018C4.86239 8.63926 5.40367 7.33248 6.36716 6.36899C7.33065 5.4055 8.63742 4.86422 10 4.86422ZM16.5376 4.66239C16.5376 4.89972 16.4672 5.13173 16.3354 5.32907C16.2035 5.52641 16.0161 5.68022 15.7968 5.77104C15.5776 5.86187 15.3363 5.88563 15.1035 5.83933C14.8707 5.79303 14.6569 5.67874 14.4891 5.51091C14.3213 5.34309 14.207 5.12927 14.1607 4.89649C14.1144 4.66372 14.1381 4.42244 14.229 4.20317C14.3198 3.98389 14.4736 3.79648 14.6709 3.66462C14.8683 3.53276 15.1003 3.46239 15.3376 3.46239C15.6559 3.46239 15.9611 3.58881 16.1861 3.81386C16.4112 4.0389 16.5376 4.34413 16.5376 4.66239Z" fill="white"/>
</svg>
