<svg width="23" height="22" viewBox="0 0 23 22" fill="none" xmlns="http://www.w3.org/2000/svg">
<path fill-rule="evenodd" clip-rule="evenodd" d="M19.7112 0.0375213C19.8613 0.0875497 19.9613 0.187607 20.0114 0.337692C20.0114 0.349132 20.0375 0.438403 20.0839 0.59653C20.4428 1.82138 22.0125 7.17761 22.0125 12.4946C22.0125 18.8482 11.5566 21.8999 11.1063 22H11.0063H10.9062C10.4559 21.8999 0 18.8482 0 12.4946C0 6.99338 1.68035 1.40814 1.96147 0.473721L1.96148 0.473708L1.96148 0.473706C1.98714 0.388415 2.00114 0.341877 2.00114 0.337692C2.05117 0.237635 2.15122 0.0875497 2.30131 0.0375213C2.40136 -0.0125071 2.55145 -0.0125071 2.70153 0.0375213C2.7064 0.0375213 2.74825 0.056007 2.82378 0.0893798C3.52428 0.398865 7.12259 1.98863 11.0063 1.98863C14.9373 1.98863 18.501 0.397083 19.1912 0.0888608C19.2652 0.0558154 19.3061 0.0375213 19.311 0.0375213C19.411 -0.0125071 19.5611 -0.0125071 19.7112 0.0375213ZM1.00116 12.4952C1.00116 17.7482 10.0063 20.7999 11.0068 21.0001C12.0074 20.7499 21.0125 17.7482 21.0125 12.4952C21.0125 8.11174 19.8928 3.92822 19.3337 1.83971L19.3337 1.83961L19.3335 1.83895C19.2674 1.59184 19.2091 1.37408 19.1615 1.1888C17.9108 1.73911 14.6589 2.98983 11.0068 2.98983C7.4048 2.98983 4.10292 1.73911 2.85221 1.1888L2.77977 1.44849C2.23319 3.4043 1.00116 7.81287 1.00116 12.4952ZM12.7078 8.99279L11.0069 4.49023L9.3059 8.99279H4.75331L8.45542 11.8444L6.75445 16.9473L11.0069 13.8456L15.2593 16.9473L13.5583 11.8444L17.2604 8.99279H12.7078ZM13.3082 14.296L12.6078 12.1448L12.2075 11.4944L12.7579 11.0442L14.1587 9.94356H11.8573L11.6072 9.29319L10.8568 7.24202L10.1063 9.29319L9.85621 9.94356H7.5549L8.9557 11.0442L9.50601 11.4944L9.30589 12.1448L8.6055 14.296L10.3565 13.0453L10.9568 12.5951L11.5572 13.0453L13.3082 14.296Z" fill="#212121"/>
</svg>
