<svg width="30" height="30" viewBox="0 0 30 30" fill="none" xmlns="http://www.w3.org/2000/svg">
<path fill-rule="evenodd" clip-rule="evenodd" d="M25.7319 30H4.26989C1.84653 30 0 28.1541 0 25.7312V4.26882C0 1.84588 1.84653 0 4.26989 0H25.7319C28.1535 0 30 1.84588 30 4.26882V25.7312C30 28.1541 28.1535 30 25.7319 30ZM15.0009 9.23118C11.7703 9.23118 9.2309 11.7688 9.2309 14.8853C9.2309 18 11.7703 20.5394 15.0009 20.5394C18.2314 20.5394 20.7691 18.1147 20.7691 14.8853C20.7691 11.7688 18.2314 9.23118 15.0009 9.23118ZM26.0766 5.07706C26.0766 4.38353 25.4997 3.80824 24.8086 3.80824H21.5763C20.8852 3.80824 20.3083 4.38353 20.3083 5.07706V8.19176C20.3083 8.88529 20.8852 9.46235 21.5763 9.46235H24.8086C25.4997 9.46235 26.0766 8.88529 26.0766 8.19176V5.07706ZM26.1926 12.9229H23.6532C23.8853 13.6147 23.9996 14.5376 23.9996 15.3459C23.9996 20.0771 19.9619 24 15.0009 24C10.0381 24 6.00035 20.0771 6.11642 15.2312C6.11642 14.4229 6.23073 13.6147 6.4611 12.8082H3.80738V25.1541C3.80738 25.8459 4.38596 26.3082 4.96102 26.3082H25.039C25.7319 26.3082 26.1926 25.7312 26.1926 25.1541V12.9229Z" fill="#212121"/>
</svg>
