<svg width="17" height="19" viewBox="0 0 17 19" fill="none" xmlns="http://www.w3.org/2000/svg">
<path d="M12.0645 12.7129V5.75623C13.503 6.74971 15.2297 7.28205 17 7.27779V4.63246C15.954 4.41975 15.0081 3.88579 14.3044 3.1109C13.7432 2.76103 13.2619 2.30475 12.8899 1.7699C12.5178 1.23505 12.2629 0.632845 12.1405 0H9.5468V13.6994C9.52133 14.2955 9.30368 14.8692 8.92406 15.3407C8.54445 15.8123 8.02173 16.1583 7.42851 16.3307C6.8353 16.5031 6.20104 16.4933 5.61384 16.3028C5.02665 16.1122 4.51567 15.7503 4.1519 15.2673C3.56379 14.9686 3.0962 14.4893 2.8234 13.9055C2.55059 13.3216 2.48821 12.6668 2.64617 12.0449C2.80413 11.4231 3.17336 10.8698 3.69523 10.4731C4.21709 10.0764 4.86166 9.85899 5.52656 9.85535C5.82506 9.85723 6.12162 9.90171 6.40657 9.98734V7.2992C5.13999 7.32541 3.90851 7.70486 2.86145 8.39153C1.8144 9.07821 0.996744 10.0426 0.507634 11.1678C0.0185234 12.293 -0.121032 13.5307 0.10589 14.7307C0.332811 15.9308 0.916462 17.0417 1.78607 17.9287C2.89039 18.6486 4.19873 19.0224 5.53212 18.999C7.26354 18.9975 8.92367 18.3349 10.1483 17.1565C11.373 15.978 12.0621 14.38 12.0645 12.7129Z" fill="white"/>
</svg>
