<svg width="24" height="20" viewBox="0 0 24 20" fill="none" xmlns="http://www.w3.org/2000/svg">
<path fill-rule="evenodd" clip-rule="evenodd" d="M21.4141 4.33636V8.61919C22.5919 8.61919 23.5556 9.58283 23.5556 10.7071V12.8485C23.5556 14.0263 22.5919 14.9899 21.4141 14.9899V17.1313C21.4141 18.3091 20.4505 19.2727 19.2727 19.2727H2.14141C0.963636 19.2727 0 18.3091 0 17.1313V4.28283C0 3.10505 0.963636 2.14141 2.14141 2.14141H2.46263L3.05152 0L10.9747 2.14141L19.2727 1.12424L19.3798 2.19495C20.504 2.24848 21.4141 3.15859 21.4141 4.33636ZM16.596 7.54884H17.6667C17.988 7.54884 18.2021 7.3347 18.2021 7.01349C18.2021 6.69227 17.988 6.47813 17.6667 6.47813H16.596C16.2748 6.47813 16.0607 6.69227 16.0607 7.01349C16.0607 7.3347 16.2748 7.54884 16.596 7.54884ZM3.74749 16.113H4.8182C5.13941 16.113 5.35355 16.3272 5.35355 16.6484C5.35355 16.9696 5.13941 17.1838 4.8182 17.1838H3.74749C3.42628 17.1838 3.21214 16.9696 3.21214 16.6484C3.21214 16.3272 3.42628 16.113 3.74749 16.113ZM6.95968 16.113H8.03039C8.3516 16.113 8.56574 16.3272 8.56574 16.6484C8.56574 16.9696 8.3516 17.1838 8.03039 17.1838H6.95968C6.63847 17.1838 6.42433 16.9696 6.42433 16.6484C6.42433 16.3272 6.63847 16.113 6.95968 16.113ZM3.74749 6.47813H4.8182C5.13941 6.47813 5.35355 6.69227 5.35355 7.01349C5.35355 7.3347 5.13941 7.54884 4.8182 7.54884H3.74749C3.42628 7.54884 3.21214 7.3347 3.21214 7.01349C3.21214 6.69227 3.42628 6.47813 3.74749 6.47813ZM18.7375 11.2965C18.4162 11.2965 18.2021 11.5106 18.2021 11.8318C18.2021 12.153 18.4162 12.3672 18.7375 12.3672C19.0587 12.3672 19.2728 12.153 19.2728 11.8318C19.2728 11.5106 19.0587 11.2965 18.7375 11.2965ZM16.596 16.113H17.6667C17.988 16.113 18.2021 16.3272 18.2021 16.6484C18.2021 16.9696 17.988 17.1838 17.6667 17.1838H16.596C16.2748 17.1838 16.0607 16.9696 16.0607 16.6484C16.0607 16.3272 16.2748 16.113 16.596 16.113ZM14.4545 6.47813H13.3838C13.0626 6.47813 12.8485 6.69227 12.8485 7.01349C12.8485 7.3347 13.0626 7.54884 13.3838 7.54884H14.4545C14.7758 7.54884 14.9899 7.3347 14.9899 7.01349C14.9899 6.69227 14.7758 6.47813 14.4545 6.47813ZM20.3435 4.33675V4.65796C20.1294 4.55089 19.8617 4.44382 19.6476 4.39029L19.5405 3.31958C19.9688 3.37311 20.3435 3.8014 20.3435 4.33675ZM18.5232 4.22894L18.3091 2.3552L13.705 2.94409L18.5232 4.22894ZM3.74753 1.33774L14.8829 4.33572H2.9445L3.74753 1.33774ZM2.14142 3.26472C1.55253 3.26472 1.07071 3.74654 1.07071 4.33543V4.65664C1.28485 4.49604 1.55253 4.4425 1.82021 4.38897L2.14142 3.26472ZM20.3434 17.1854C20.3434 17.7743 19.8616 18.2561 19.2727 18.2561H2.14142C1.55253 18.2561 1.07071 17.7743 1.07071 17.1854V6.47829C1.07071 5.8894 1.55253 5.40759 2.14142 5.40759H19.2727C19.8616 5.40759 20.3434 5.8894 20.3434 6.47829V8.61971H18.202C17.0242 8.61971 16.0606 9.58334 16.0606 10.7611V12.9025C16.0606 14.0803 17.0242 15.0439 18.202 15.0439H20.3434V17.1854ZM21.4142 13.9726C22.0031 13.9726 22.4849 13.4908 22.4849 12.9019V10.7605C22.4849 10.1716 22.0031 9.68977 21.4142 9.68977H18.202C17.6132 9.68977 17.1313 10.1716 17.1313 10.7605V12.9019C17.1313 13.4908 17.6132 13.9726 18.202 13.9726H21.4142ZM14.4545 16.113H13.3838C13.0626 16.113 12.8485 16.3272 12.8485 16.6484C12.8485 16.9696 13.0626 17.1838 13.3838 17.1838H14.4545C14.7758 17.1838 14.9899 16.9696 14.9899 16.6484C14.9899 16.3272 14.7758 16.113 14.4545 16.113ZM10.1718 16.113H11.2425C11.5637 16.113 11.7778 16.3272 11.7778 16.6484C11.7778 16.9696 11.5637 17.1838 11.2425 17.1838H10.1718C9.85055 17.1838 9.63641 16.9696 9.63641 16.6484C9.63641 16.3272 9.85055 16.113 10.1718 16.113ZM8.03039 6.47813H6.95968C6.63847 6.47813 6.42433 6.69227 6.42433 7.01349C6.42433 7.3347 6.63847 7.54884 6.95968 7.54884H8.03039C8.3516 7.54884 8.56574 7.3347 8.56574 7.01349C8.56574 6.69227 8.3516 6.47813 8.03039 6.47813ZM10.1718 6.47813H11.2425C11.5637 6.47813 11.7778 6.69227 11.7778 7.01349C11.7778 7.3347 11.5637 7.54884 11.2425 7.54884H10.1718C9.85055 7.54884 9.63641 7.3347 9.63641 7.01349C9.63641 6.69227 9.85055 6.47813 10.1718 6.47813Z" fill="#212121"/>
</svg>
