<svg width="21" height="15" viewBox="0 0 21 15" fill="none" xmlns="http://www.w3.org/2000/svg">
<path d="M20.5609 2.34231C20.4415 1.88818 20.2071 1.4741 19.8812 1.14162C19.5554 0.809142 19.1496 0.569958 18.7046 0.448074C17.0688 -2.56758e-06 10.5009 0 10.5009 0C10.5009 0 3.93313 -2.56758e-06 2.29542 0.448074C1.8509 0.571019 1.44565 0.810562 1.11999 1.14288C0.794323 1.47519 0.559586 1.88871 0.439102 2.34231C-8.26752e-06 4.01346 0 7.5 0 7.5C0 7.5 -8.26752e-06 10.9865 0.439102 12.6577C0.559586 13.1113 0.794323 13.5248 1.11999 13.8571C1.44565 14.1894 1.8509 14.429 2.29542 14.5519C3.93313 15 10.5009 15 10.5009 15C10.5009 15 17.0669 15 18.7046 14.5519C19.1496 14.43 19.5554 14.1909 19.8812 13.8584C20.2071 13.5259 20.4415 13.1118 20.5609 12.6577C21 10.9865 21 7.5 21 7.5C21 7.5 21 4.01346 20.5609 2.34231ZM8.39962 10.7135V4.28654L13.8649 7.5L8.39962 10.7135Z" fill="white"/>
</svg>
