<svg width="29" height="29" viewBox="0 0 29 29" fill="none" xmlns="http://www.w3.org/2000/svg">
<path fill-rule="evenodd" clip-rule="evenodd" d="M28.639 27.7215L21.6922 20.7747C23.6583 18.5465 24.9034 15.663 24.9034 12.4517C24.9034 5.57051 19.3329 0 12.4517 0C5.57051 0 0 5.57051 0 12.4517C0 19.3329 5.57051 24.9034 12.4517 24.9034C15.663 24.9034 18.5465 23.6583 20.7747 21.6922L27.7215 28.639C27.8525 28.77 27.9836 28.8356 28.1802 28.8356C28.5734 28.8356 28.8356 28.5734 28.8356 28.1802C28.8356 27.9836 28.77 27.8525 28.639 27.7215ZM18.3502 11.7966H13.1073V6.55379C13.1073 6.16058 12.8452 5.89844 12.452 5.89844C12.0588 5.89844 11.7966 6.16058 11.7966 6.55379V11.7966H6.55379C6.16058 11.7966 5.89844 12.0588 5.89844 12.452C5.89844 12.8452 6.16058 13.1073 6.55379 13.1073H11.7966V18.3502C11.7966 18.7434 12.0588 19.0055 12.452 19.0055C12.8452 19.0055 13.1073 18.7434 13.1073 18.3502V13.1073H18.3502C18.7434 13.1073 19.0055 12.8452 19.0055 12.452C19.0055 12.0588 18.7434 11.7966 18.3502 11.7966ZM1.31055 12.4516C1.31055 18.6119 6.29124 23.5926 12.4516 23.5926C18.6119 23.5926 23.5926 18.6119 23.5926 12.4516C23.5926 6.29124 18.6119 1.31055 12.4516 1.31055C6.29124 1.31055 1.31055 6.29124 1.31055 12.4516Z" fill="#AAAAAA"/>
</svg>
